<?xml version="1.0" standalone="no"?>
<!DOCTYPE svg PUBLIC "-//W3C//DTD SVG 20010904//EN"
 "http://www.w3.org/TR/2001/REC-SVG-20010904/DTD/svg10.dtd">
<svg version="1.0" xmlns="http://www.w3.org/2000/svg"
 width="369.000000pt" height="369.000000pt" viewBox="0 0 369.000000 369.000000"
 preserveAspectRatio="xMidYMid meet">
<metadata>
Created by potrace 1.11, written by Peter Selinger 2001-2013
</metadata>
<g transform="translate(0.000000,369.000000) scale(0.100000,-0.100000)"
fill="#000000" stroke="none">
<path d="M2380 3655 c-14 -7 -28 -11 -31 -9 -4 2 -9 -3 -13 -11 -3 -8 -11 -15
-18 -15 -8 0 -21 -8 -30 -17 -9 -10 -30 -31 -46 -46 -51 -49 -156 -285 -176
-397 -3 -14 -5 -25 -6 -25 -1 0 -3 -15 -5 -33 -2 -19 -5 -36 -7 -38 -2 -2 -20
1 -39 6 -30 9 -129 21 -169 21 -35 1 -37 6 -28 61 4 29 11 71 15 93 10 61 6
179 -8 238 -20 87 -50 129 -114 163 -27 14 -151 18 -159 5 -4 -6 -13 -8 -21
-4 -8 3 -15 0 -15 -7 0 -6 -4 -9 -9 -6 -15 10 -101 -75 -127 -125 -13 -27 -21
-49 -18 -49 4 0 2 -6 -4 -12 -6 -7 -11 -17 -11 -23 -1 -5 -7 -28 -13 -50 -13
-46 -12 -40 -21 -85 -4 -19 -10 -46 -13 -60 -3 -14 -7 -41 -9 -60 -2 -19 -13
-69 -25 -110 -11 -41 -22 -88 -26 -105 -3 -16 -6 -30 -7 -30 -36 -18 -237
-209 -267 -255 -8 -12 -25 -33 -38 -46 -13 -13 -19 -24 -15 -24 4 0 1 -6 -8
-13 -16 -13 -65 -89 -75 -119 -4 -10 -11 -18 -17 -18 -6 0 -8 -3 -4 -6 3 -3
-7 -27 -21 -52 -15 -26 -38 -74 -51 -107 -12 -33 -27 -69 -31 -80 -13 -31 -25
-75 -36 -138 -3 -16 -12 -46 -19 -68 -9 -24 -10 -37 -4 -33 8 4 8 1 1 -12 -6
-11 -14 -41 -18 -69 -7 -46 -9 -56 -13 -70 0 -3 -15 4 -32 14 -55 34 -136 -5
-160 -76 -34 -104 5 -210 115 -318 41 -40 78 -83 81 -96 3 -13 12 -53 20 -89
18 -79 20 -88 34 -122 6 -16 8 -28 5 -28 -4 0 -2 -6 3 -12 5 -7 22 -49 38 -93
16 -44 37 -95 47 -113 10 -17 15 -32 12 -32 -3 0 15 -38 40 -85 25 -47 42 -85
38 -85 -4 0 -2 -4 3 -8 6 -4 30 -37 54 -75 24 -37 47 -67 52 -67 5 0 9 -6 9
-14 0 -32 366 -376 399 -376 6 0 11 -4 11 -9 0 -5 8 -11 18 -15 9 -3 46 -22
82 -41 36 -19 84 -40 108 -47 23 -7 42 -15 42 -18 0 -3 15 -5 33 -3 17 2 38 4
45 5 6 1 12 5 12 10 0 4 6 8 13 8 27 0 73 74 105 170 17 50 22 55 48 54 36 -1
55 -6 71 -19 65 -53 113 -85 140 -97 104 -42 189 -24 240 53 27 41 28 47 29
178 0 75 4 148 8 162 14 50 76 62 131 25 17 -11 32 -23 35 -26 15 -17 99 -80
126 -93 102 -52 221 -32 300 50 40 41 60 84 62 133 2 37 -13 117 -29 160 -11
31 -21 69 -22 93 -1 9 -4 17 -7 17 -4 0 -6 21 -5 48 2 75 37 112 110 116 11 1
25 4 30 7 6 4 24 10 41 13 18 4 50 23 72 42 72 61 80 145 19 200 -34 31 -59
44 -169 89 -78 31 -101 52 -75 66 9 6 29 21 43 34 14 13 29 25 32 27 10 4 46
57 65 94 33 63 26 175 -13 230 -28 39 -126 74 -155 56 -5 -4 -17 -8 -26 -9
-17 -3 -22 15 -35 127 -3 19 -10 53 -16 75 -6 22 -12 42 -13 45 -36 156 -201
465 -295 555 -31 30 -36 49 -21 87 8 19 35 128 46 188 2 8 4 15 5 15 1 0 4 11
14 60 1 6 5 15 8 21 4 6 9 23 12 39 3 16 10 51 16 79 23 115 31 210 19 236 -4
8 -15 36 -24 62 -20 56 -82 130 -129 152 -46 22 -116 27 -146 11z"/>
</g>
</svg>
